<svg width="30" height="30" viewBox="0 0 30 30" fill="none" xmlns="http://www.w3.org/2000/svg">
    <g clip-path="url(#clip0_557_73834)">
        <path fill-rule="evenodd" clip-rule="evenodd"
              d="M7.17773 0L18 0.139423L27 9V26.0945C27 28.2534 25.1316 30 22.8302 30H7.17773C4.86835 30 3 28.2534 3 26.0945V3.90553C2.99996 1.74662 4.86831 0 7.17773 0Z"
              fill="#7F56D9"/>
        <path d="M9.92116 18.6818H11.1371V22.7386C11.1371 23.1136 11.0528 23.4394 10.8842 23.7159C10.7176 23.9924 10.4856 24.2055 10.1882 24.3551C9.89086 24.5047 9.54522 24.5795 9.15128 24.5795C8.8009 24.5795 8.48272 24.518 8.19673 24.3949C7.91264 24.2699 7.68726 24.0805 7.5206 23.8267C7.35393 23.571 7.27154 23.25 7.27344 22.8636H8.49787C8.50166 23.017 8.53291 23.1487 8.59162 23.2585C8.65223 23.3665 8.73461 23.4498 8.83878 23.5085C8.94484 23.5653 9.06984 23.5938 9.21378 23.5938C9.36529 23.5938 9.49313 23.5616 9.5973 23.4972C9.70336 23.4309 9.78385 23.3343 9.83878 23.2074C9.8937 23.0805 9.92116 22.9242 9.92116 22.7386V18.6818ZM12.1541 24.5V18.6818H14.4496C14.8909 18.6818 15.2668 18.7661 15.5774 18.9347C15.888 19.1013 16.1248 19.3333 16.2876 19.6307C16.4524 19.9261 16.5348 20.267 16.5348 20.6534C16.5348 21.0398 16.4515 21.3807 16.2848 21.6761C16.1181 21.9716 15.8767 22.2017 15.5604 22.3665C15.246 22.5312 14.8653 22.6136 14.4183 22.6136H12.9553V21.6278H14.2195C14.4562 21.6278 14.6513 21.5871 14.8047 21.5057C14.96 21.4223 15.0755 21.3078 15.1513 21.1619C15.2289 21.0142 15.2678 20.8447 15.2678 20.6534C15.2678 20.4602 15.2289 20.2917 15.1513 20.1477C15.0755 20.0019 14.96 19.8892 14.8047 19.8097C14.6494 19.7282 14.4524 19.6875 14.2138 19.6875H13.3842V24.5H12.1541ZM21.1918 20.5625C21.152 20.4242 21.0961 20.3021 21.0241 20.196C20.9522 20.0881 20.8641 19.9972 20.7599 19.9233C20.6577 19.8475 20.5402 19.7898 20.4077 19.75C20.277 19.7102 20.1321 19.6903 19.973 19.6903C19.6757 19.6903 19.4143 19.7642 19.1889 19.9119C18.9654 20.0597 18.7912 20.2746 18.6662 20.5568C18.5412 20.8371 18.4787 21.1799 18.4787 21.5852C18.4787 21.9905 18.5402 22.3352 18.6634 22.6193C18.7865 22.9034 18.9607 23.1203 19.1861 23.2699C19.4115 23.4176 19.6776 23.4915 19.9844 23.4915C20.2628 23.4915 20.5005 23.4422 20.6974 23.3438C20.8963 23.2434 21.0478 23.1023 21.152 22.9205C21.258 22.7386 21.3111 22.5237 21.3111 22.2756L21.5611 22.3125H20.0611V21.3864H22.4957V22.1193C22.4957 22.6307 22.3878 23.0701 22.1719 23.4375C21.956 23.803 21.6586 24.0852 21.2798 24.2841C20.901 24.4811 20.4673 24.5795 19.9787 24.5795C19.4332 24.5795 18.9541 24.4593 18.5412 24.2188C18.1283 23.9763 17.8063 23.6326 17.5753 23.1875C17.3461 22.7405 17.2315 22.2102 17.2315 21.5966C17.2315 21.125 17.2997 20.7045 17.4361 20.3352C17.5743 19.964 17.7675 19.6496 18.0156 19.392C18.2637 19.1345 18.5526 18.9384 18.8821 18.804C19.2116 18.6695 19.5687 18.6023 19.9531 18.6023C20.2827 18.6023 20.5895 18.6506 20.8736 18.7472C21.1577 18.8419 21.4096 18.9763 21.6293 19.1506C21.8509 19.3248 22.0317 19.5322 22.1719 19.7727C22.312 20.0114 22.402 20.2746 22.4418 20.5625H21.1918Z"
              fill="white"/>
        <path d="M18.0192 6.12V0L27 9H21.0128C18.3186 9 17.8945 7.08 18.0192 6.12Z" fill="white" fill-opacity="0.3"/>
    </g>
    <defs>
        <clipPath id="clip0_557_73834">
            <rect width="30" height="30" fill="white"/>
        </clipPath>
    </defs>
</svg>
