<svg width="30" height="30" viewBox="0 0 30 30" fill="none" xmlns="http://www.w3.org/2000/svg">
    <g clip-path="url(#clip0_557_73812)">
        <path fill-rule="evenodd" clip-rule="evenodd"
              d="M7.17773 0H18L27 9V26.0945C27 28.2534 25.1316 30 22.8302 30H7.17773C4.86835 30 3 28.2534 3 26.0945V3.90553C2.99996 1.74662 4.86831 0 7.17773 0Z"
              fill="#155EEF"/>
        <path d="M8.52131 24.5H6.45881V18.6818H8.53835C9.12358 18.6818 9.62737 18.7983 10.0497 19.0312C10.4721 19.2623 10.7969 19.5947 11.0241 20.0284C11.2533 20.4621 11.3679 20.9811 11.3679 21.5852C11.3679 22.1913 11.2533 22.7121 11.0241 23.1477C10.7969 23.5833 10.4702 23.9176 10.044 24.1506C9.61979 24.3835 9.11222 24.5 8.52131 24.5ZM7.68892 23.446H8.47017C8.83381 23.446 9.13968 23.3816 9.38778 23.2528C9.63778 23.1222 9.82528 22.9205 9.95028 22.6477C10.0772 22.3731 10.1406 22.0189 10.1406 21.5852C10.1406 21.1553 10.0772 20.804 9.95028 20.5312C9.82528 20.2585 9.63873 20.0578 9.39062 19.929C9.14252 19.8002 8.83665 19.7358 8.47301 19.7358H7.68892V23.446ZM17.6257 21.5909C17.6257 22.2254 17.5054 22.7652 17.2649 23.2102C17.0263 23.6553 16.7005 23.9953 16.2876 24.2301C15.8767 24.4631 15.4145 24.5795 14.9013 24.5795C14.3842 24.5795 13.9202 24.4621 13.5092 24.2273C13.0982 23.9924 12.7734 23.6525 12.5348 23.2074C12.2962 22.7623 12.1768 22.2235 12.1768 21.5909C12.1768 20.9564 12.2962 20.4167 12.5348 19.9716C12.7734 19.5265 13.0982 19.1875 13.5092 18.9545C13.9202 18.7197 14.3842 18.6023 14.9013 18.6023C15.4145 18.6023 15.8767 18.7197 16.2876 18.9545C16.7005 19.1875 17.0263 19.5265 17.2649 19.9716C17.5054 20.4167 17.6257 20.9564 17.6257 21.5909ZM16.3786 21.5909C16.3786 21.1799 16.317 20.8333 16.1939 20.5511C16.0727 20.2689 15.9013 20.0549 15.6797 19.9091C15.4581 19.7633 15.1986 19.6903 14.9013 19.6903C14.6039 19.6903 14.3445 19.7633 14.1229 19.9091C13.9013 20.0549 13.7289 20.2689 13.6058 20.5511C13.4846 20.8333 13.424 21.1799 13.424 21.5909C13.424 22.0019 13.4846 22.3485 13.6058 22.6307C13.7289 22.9129 13.9013 23.1269 14.1229 23.2727C14.3445 23.4186 14.6039 23.4915 14.9013 23.4915C15.1986 23.4915 15.4581 23.4186 15.6797 23.2727C15.9013 23.1269 16.0727 22.9129 16.1939 22.6307C16.317 22.3485 16.3786 22.0019 16.3786 21.5909ZM23.6705 20.7188H22.4261C22.4034 20.5578 22.357 20.4148 22.2869 20.2898C22.2169 20.1629 22.1269 20.0549 22.017 19.9659C21.9072 19.8769 21.7803 19.8087 21.6364 19.7614C21.4943 19.714 21.34 19.6903 21.1733 19.6903C20.8722 19.6903 20.6098 19.7652 20.3864 19.9148C20.1629 20.0625 19.9896 20.2784 19.8665 20.5625C19.7434 20.8447 19.6818 21.1875 19.6818 21.5909C19.6818 22.0057 19.7434 22.3542 19.8665 22.6364C19.9915 22.9186 20.1657 23.1316 20.3892 23.2756C20.6127 23.4195 20.8712 23.4915 21.1648 23.4915C21.3295 23.4915 21.482 23.4697 21.6222 23.4261C21.7642 23.3826 21.8902 23.3191 22 23.2358C22.1098 23.1506 22.2008 23.0473 22.2727 22.9261C22.3466 22.8049 22.3977 22.6667 22.4261 22.5114L23.6705 22.517C23.6383 22.7841 23.5578 23.0417 23.429 23.2898C23.3021 23.536 23.1307 23.7566 22.9148 23.9517C22.7008 24.1449 22.4451 24.2983 22.1477 24.4119C21.8523 24.5237 21.518 24.5795 21.1449 24.5795C20.6259 24.5795 20.1619 24.4621 19.7528 24.2273C19.3456 23.9924 19.0237 23.6525 18.7869 23.2074C18.5521 22.7623 18.4347 22.2235 18.4347 21.5909C18.4347 20.9564 18.554 20.4167 18.7926 19.9716C19.0313 19.5265 19.3551 19.1875 19.7642 18.9545C20.1733 18.7197 20.6335 18.6023 21.1449 18.6023C21.482 18.6023 21.7945 18.6496 22.0824 18.7443C22.3722 18.839 22.6288 18.9773 22.8523 19.1591C23.0758 19.339 23.2576 19.5597 23.3977 19.821C23.5398 20.0824 23.6307 20.3816 23.6705 20.7188Z"
              fill="white"/>
        <path d="M18.0192 6.12V0L27 9H21.0128C18.3186 9 17.8945 7.08 18.0192 6.12Z" fill="white" fill-opacity="0.3"/>
    </g>
    <defs>
        <clipPath id="clip0_557_73812">
            <rect width="30" height="30" fill="white"/>
        </clipPath>
    </defs>
</svg>
