<svg width="30" height="30" viewBox="0 0 30 30" fill="none" xmlns="http://www.w3.org/2000/svg">
    <g clip-path="url(#clip0_557_73784)">
        <path fill-rule="evenodd" clip-rule="evenodd"
              d="M7.27096 0H18L27 9V26.0944C27 28.2533 25.1316 30 22.8302 30H7.17773C4.86835 30 3 28.2533 3 26.0944V3.9055C2.99996 1.74659 4.96154 0 7.27096 0Z"
              fill="#D92D20"/>
        <path d="M18.0192 6.12V0L27 9H21.0128C18.3186 9 17.8945 7.08 18.0192 6.12Z" fill="white" fill-opacity="0.3"/>
        <path d="M7.66584 24.5V18.6818H9.96129C10.4026 18.6818 10.7785 18.7661 11.0891 18.9347C11.3997 19.1013 11.6365 19.3333 11.7994 19.6307C11.9641 19.9261 12.0465 20.267 12.0465 20.6534C12.0465 21.0398 11.9632 21.3807 11.7965 21.6761C11.6299 21.9716 11.3884 22.2017 11.0721 22.3665C10.7577 22.5312 10.377 22.6136 9.93004 22.6136H8.46697V21.6278H9.73118C9.96792 21.6278 10.163 21.5871 10.3164 21.5057C10.4717 21.4223 10.5872 21.3078 10.663 21.1619C10.7406 21.0142 10.7795 20.8447 10.7795 20.6534C10.7795 20.4602 10.7406 20.2917 10.663 20.1477C10.5872 20.0019 10.4717 19.8892 10.3164 19.8097C10.1611 19.7282 9.96413 19.6875 9.7255 19.6875H8.89595V24.5H7.66584ZM14.908 24.5H12.8455V18.6818H14.9251C15.5103 18.6818 16.0141 18.7983 16.4364 19.0312C16.8588 19.2623 17.1836 19.5947 17.4109 20.0284C17.64 20.4621 17.7546 20.9811 17.7546 21.5852C17.7546 22.1913 17.64 22.7121 17.4109 23.1477C17.1836 23.5833 16.8569 23.9176 16.4308 24.1506C16.0065 24.3835 15.4989 24.5 14.908 24.5ZM14.0756 23.446H14.8569C15.2205 23.446 15.5264 23.3816 15.7745 23.2528C16.0245 23.1222 16.212 22.9205 16.337 22.6477C16.4639 22.3731 16.5273 22.0189 16.5273 21.5852C16.5273 21.1553 16.4639 20.804 16.337 20.5312C16.212 20.2585 16.0254 20.0578 15.7773 19.929C15.5292 19.8002 15.2234 19.7358 14.8597 19.7358H14.0756V23.446ZM18.6658 24.5V18.6818H22.5181V19.696H19.896V21.0824H22.2624V22.0966H19.896V24.5H18.6658Z"
              fill="white"/>
    </g>
    <defs>
        <clipPath id="clip0_557_73784">
            <rect width="30" height="30" fill="white"/>
        </clipPath>
    </defs>
</svg>
