<svg width="30" height="30" viewBox="0 0 30 30" fill="none" xmlns="http://www.w3.org/2000/svg">
    <g clip-path="url(#clip0_557_73801)">
        <path fill-rule="evenodd" clip-rule="evenodd"
              d="M7.17773 0H18L27 9V26.0945C27 28.2534 25.1316 30 22.8302 30H7.17773C4.86835 30 3 28.2534 3 26.0945V3.90553C2.99996 1.74662 4.86831 0 7.17773 0Z"
              fill="#079455"/>
        <path d="M6.04972 18.6818L7.22301 20.6648H7.26847L8.44744 18.6818H9.83665L8.06108 21.5909L9.87642 24.5H8.46165L7.26847 22.5142H7.22301L6.02983 24.5H4.62074L6.44176 21.5909L4.65483 18.6818H6.04972ZM10.6151 24.5V18.6818H11.8452V23.4858H14.3395V24.5H10.6151ZM18.3104 20.3551C18.2876 20.1259 18.1901 19.9479 18.0178 19.821C17.8454 19.6941 17.6115 19.6307 17.3161 19.6307C17.1153 19.6307 16.9458 19.6591 16.8075 19.7159C16.6693 19.7708 16.5632 19.8475 16.4893 19.946C16.4174 20.0445 16.3814 20.1562 16.3814 20.2812C16.3776 20.3854 16.3994 20.4763 16.4467 20.554C16.496 20.6316 16.5632 20.6989 16.6484 20.7557C16.7337 20.8106 16.8321 20.8589 16.9439 20.9006C17.0556 20.9403 17.175 20.9744 17.3018 21.0028L17.8246 21.1278C18.0784 21.1847 18.3113 21.2604 18.5234 21.3551C18.7356 21.4498 18.9193 21.5663 19.0746 21.7045C19.2299 21.8428 19.3501 22.0057 19.4354 22.1932C19.5225 22.3807 19.567 22.5956 19.5689 22.8381C19.567 23.1941 19.4761 23.5028 19.2962 23.7642C19.1181 24.0237 18.8606 24.2254 18.5234 24.3693C18.1882 24.5114 17.7839 24.5824 17.3104 24.5824C16.8407 24.5824 16.4316 24.5104 16.0831 24.3665C15.7365 24.2225 15.4657 24.0095 15.2706 23.7273C15.0774 23.4432 14.9761 23.0919 14.9666 22.6733H16.157C16.1702 22.8684 16.2261 23.0312 16.3246 23.1619C16.425 23.2907 16.5585 23.3883 16.7251 23.4545C16.8937 23.5189 17.084 23.5511 17.2962 23.5511C17.5045 23.5511 17.6854 23.5208 17.8388 23.4602C17.9941 23.3996 18.1143 23.3153 18.1996 23.2074C18.2848 23.0994 18.3274 22.9754 18.3274 22.8352C18.3274 22.7045 18.2886 22.5947 18.2109 22.5057C18.1352 22.4167 18.0234 22.3409 17.8757 22.2784C17.7299 22.2159 17.5509 22.1591 17.3388 22.108L16.7053 21.9489C16.2147 21.8295 15.8274 21.643 15.5433 21.3892C15.2592 21.1354 15.1181 20.7936 15.12 20.3636C15.1181 20.0114 15.2119 19.7036 15.4013 19.4403C15.5926 19.1771 15.8549 18.9716 16.1882 18.8239C16.5215 18.6761 16.9003 18.6023 17.3246 18.6023C17.7564 18.6023 18.1333 18.6761 18.4553 18.8239C18.7791 18.9716 19.031 19.1771 19.2109 19.4403C19.3909 19.7036 19.4837 20.0085 19.4893 20.3551H18.3104ZM21.5497 18.6818L22.723 20.6648H22.7685L23.9474 18.6818H25.3366L23.5611 21.5909L25.3764 24.5H23.9616L22.7685 22.5142H22.723L21.5298 24.5H20.1207L21.9418 21.5909L20.1548 18.6818H21.5497Z"
              fill="white"/>
        <path d="M18.0192 6.12V0L27 9H21.0128C18.3186 9 17.8945 7.08 18.0192 6.12Z" fill="white" fill-opacity="0.3"/>
    </g>
    <defs>
        <clipPath id="clip0_557_73801">
            <rect width="30" height="30" fill="white"/>
        </clipPath>
    </defs>
</svg>
