<svg width="30" height="30" viewBox="0 0 30 30" fill="none" xmlns="http://www.w3.org/2000/svg">
    <g clip-path="url(#clip0_557_73823)">
        <path fill-rule="evenodd" clip-rule="evenodd"
              d="M7.17773 0H18L27 9V26.0945C27 28.2534 25.1316 30 22.8302 30H7.17773C4.86835 30 3 28.2534 3 26.0945V3.90553C2.99996 1.74662 4.86831 0 7.17773 0Z"
              fill="#155EEF"/>
        <path d="M5.72443 24.5H3.66193V18.6818H5.74148C6.3267 18.6818 6.83049 18.7983 7.25284 19.0312C7.67519 19.2623 8 19.5947 8.22727 20.0284C8.45644 20.4621 8.57102 20.9811 8.57102 21.5852C8.57102 22.1913 8.45644 22.7121 8.22727 23.1477C8 23.5833 7.6733 23.9176 7.24716 24.1506C6.82292 24.3835 6.31534 24.5 5.72443 24.5ZM4.89205 23.446H5.6733C6.03693 23.446 6.3428 23.3816 6.59091 23.2528C6.84091 23.1222 7.02841 22.9205 7.15341 22.6477C7.2803 22.3731 7.34375 22.0189 7.34375 21.5852C7.34375 21.1553 7.2803 20.804 7.15341 20.5312C7.02841 20.2585 6.84186 20.0578 6.59375 19.929C6.34564 19.8002 6.03977 19.7358 5.67614 19.7358H4.89205V23.446ZM14.8288 21.5909C14.8288 22.2254 14.7086 22.7652 14.468 23.2102C14.2294 23.6553 13.9036 23.9953 13.4908 24.2301C13.0798 24.4631 12.6177 24.5795 12.1044 24.5795C11.5874 24.5795 11.1233 24.4621 10.7124 24.2273C10.3014 23.9924 9.97656 23.6525 9.73793 23.2074C9.49929 22.7623 9.37997 22.2235 9.37997 21.5909C9.37997 20.9564 9.49929 20.4167 9.73793 19.9716C9.97656 19.5265 10.3014 19.1875 10.7124 18.9545C11.1233 18.7197 11.5874 18.6023 12.1044 18.6023C12.6177 18.6023 13.0798 18.7197 13.4908 18.9545C13.9036 19.1875 14.2294 19.5265 14.468 19.9716C14.7086 20.4167 14.8288 20.9564 14.8288 21.5909ZM13.5817 21.5909C13.5817 21.1799 13.5201 20.8333 13.397 20.5511C13.2758 20.2689 13.1044 20.0549 12.8828 19.9091C12.6612 19.7633 12.4018 19.6903 12.1044 19.6903C11.8071 19.6903 11.5476 19.7633 11.326 19.9091C11.1044 20.0549 10.9321 20.2689 10.8089 20.5511C10.6877 20.8333 10.6271 21.1799 10.6271 21.5909C10.6271 22.0019 10.6877 22.3485 10.8089 22.6307C10.9321 22.9129 11.1044 23.1269 11.326 23.2727C11.5476 23.4186 11.8071 23.4915 12.1044 23.4915C12.4018 23.4915 12.6612 23.4186 12.8828 23.2727C13.1044 23.1269 13.2758 22.9129 13.397 22.6307C13.5201 22.3485 13.5817 22.0019 13.5817 21.5909ZM20.8736 20.7188H19.6293C19.6065 20.5578 19.5601 20.4148 19.4901 20.2898C19.42 20.1629 19.33 20.0549 19.2202 19.9659C19.1103 19.8769 18.9834 19.8087 18.8395 19.7614C18.6974 19.714 18.5431 19.6903 18.3764 19.6903C18.0753 19.6903 17.813 19.7652 17.5895 19.9148C17.366 20.0625 17.1927 20.2784 17.0696 20.5625C16.9465 20.8447 16.8849 21.1875 16.8849 21.5909C16.8849 22.0057 16.9465 22.3542 17.0696 22.6364C17.1946 22.9186 17.3688 23.1316 17.5923 23.2756C17.8158 23.4195 18.0743 23.4915 18.3679 23.4915C18.5327 23.4915 18.6851 23.4697 18.8253 23.4261C18.9673 23.3826 19.0933 23.3191 19.2031 23.2358C19.313 23.1506 19.4039 23.0473 19.4759 22.9261C19.5497 22.8049 19.6009 22.6667 19.6293 22.5114L20.8736 22.517C20.8414 22.7841 20.7609 23.0417 20.6321 23.2898C20.5052 23.536 20.3338 23.7566 20.1179 23.9517C19.9039 24.1449 19.6482 24.2983 19.3509 24.4119C19.0554 24.5237 18.7211 24.5795 18.348 24.5795C17.8291 24.5795 17.3651 24.4621 16.956 24.2273C16.5488 23.9924 16.2268 23.6525 15.9901 23.2074C15.7552 22.7623 15.6378 22.2235 15.6378 21.5909C15.6378 20.9564 15.7571 20.4167 15.9957 19.9716C16.2344 19.5265 16.5582 19.1875 16.9673 18.9545C17.3764 18.7197 17.8366 18.6023 18.348 18.6023C18.6851 18.6023 18.9976 18.6496 19.2855 18.7443C19.5753 18.839 19.8319 18.9773 20.0554 19.1591C20.2789 19.339 20.4607 19.5597 20.6009 19.821C20.7429 20.0824 20.8338 20.3816 20.8736 20.7188ZM22.7841 18.6818L23.9574 20.6648H24.0028L25.1818 18.6818H26.571L24.7955 21.5909L26.6108 24.5H25.196L24.0028 22.5142H23.9574L22.7642 24.5H21.3551L23.1761 21.5909L21.3892 18.6818H22.7841Z"
              fill="white"/>
        <path d="M18.0192 6.12V0L27 9H21.0128C18.3186 9 17.8945 7.08 18.0192 6.12Z" fill="white" fill-opacity="0.3"/>
    </g>
    <defs>
        <clipPath id="clip0_557_73823">
            <rect width="30" height="30" fill="white"/>
        </clipPath>
    </defs>
</svg>
