<svg width="30" height="30" viewBox="0 0 30 30" fill="none" xmlns="http://www.w3.org/2000/svg">
    <g clip-path="url(#clip0_557_73790)">
        <path fill-rule="evenodd" clip-rule="evenodd"
              d="M7.17773 0L18 0.139423L27 9V26.0945C27 28.2534 25.1316 30 22.8302 30H7.17773C4.86835 30 3 28.2534 3 26.0945V3.90553C2.99996 1.74662 4.86831 0 7.17773 0Z"
              fill="#079455"/>
        <path d="M8.90909 18.6818L10.0824 20.6648H10.1278L11.3068 18.6818H12.696L10.9205 21.5909L12.7358 24.5H11.321L10.1278 22.5142H10.0824L8.8892 24.5H7.48011L9.30114 21.5909L7.5142 18.6818H8.90909ZM13.4744 24.5V18.6818H14.7045V23.4858H17.1989V24.5H13.4744ZM21.1697 20.3551C21.147 20.1259 21.0495 19.9479 20.8771 19.821C20.7048 19.6941 20.4709 19.6307 20.1754 19.6307C19.9747 19.6307 19.8052 19.6591 19.6669 19.7159C19.5286 19.7708 19.4226 19.8475 19.3487 19.946C19.2768 20.0445 19.2408 20.1562 19.2408 20.2812C19.237 20.3854 19.2588 20.4763 19.3061 20.554C19.3554 20.6316 19.4226 20.6989 19.5078 20.7557C19.593 20.8106 19.6915 20.8589 19.8033 20.9006C19.915 20.9403 20.0343 20.9744 20.1612 21.0028L20.6839 21.1278C20.9377 21.1847 21.1707 21.2604 21.3828 21.3551C21.5949 21.4498 21.7786 21.5663 21.9339 21.7045C22.0893 21.8428 22.2095 22.0057 22.2947 22.1932C22.3819 22.3807 22.4264 22.5956 22.4283 22.8381C22.4264 23.1941 22.3355 23.5028 22.1555 23.7642C21.9775 24.0237 21.7199 24.2254 21.3828 24.3693C21.0476 24.5114 20.6432 24.5824 20.1697 24.5824C19.7 24.5824 19.291 24.5104 18.9425 24.3665C18.5959 24.2225 18.325 24.0095 18.13 23.7273C17.9368 23.4432 17.8355 23.0919 17.826 22.6733H19.0163C19.0296 22.8684 19.0855 23.0312 19.1839 23.1619C19.2843 23.2907 19.4179 23.3883 19.5845 23.4545C19.7531 23.5189 19.9434 23.5511 20.1555 23.5511C20.3639 23.5511 20.5447 23.5208 20.6982 23.4602C20.8535 23.3996 20.9737 23.3153 21.0589 23.2074C21.1442 23.0994 21.1868 22.9754 21.1868 22.8352C21.1868 22.7045 21.148 22.5947 21.0703 22.5057C20.9946 22.4167 20.8828 22.3409 20.7351 22.2784C20.5893 22.2159 20.4103 22.1591 20.1982 22.108L19.5646 21.9489C19.0741 21.8295 18.6868 21.643 18.4027 21.3892C18.1186 21.1354 17.9775 20.7936 17.9794 20.3636C17.9775 20.0114 18.0713 19.7036 18.2607 19.4403C18.4519 19.1771 18.7143 18.9716 19.0476 18.8239C19.3809 18.6761 19.7597 18.6023 20.1839 18.6023C20.6158 18.6023 20.9927 18.6761 21.3146 18.8239C21.6385 18.9716 21.8904 19.1771 22.0703 19.4403C22.2502 19.7036 22.343 20.0085 22.3487 20.3551H21.1697Z"
              fill="white"/>
        <path d="M18.0192 6.12V0L27 9H21.0128C18.3186 9 17.8945 7.08 18.0192 6.12Z" fill="white" fill-opacity="0.3"/>
    </g>
    <defs>
        <clipPath id="clip0_557_73790">
            <rect width="30" height="30" fill="white"/>
        </clipPath>
    </defs>
</svg>
