<svg width="30" height="30" viewBox="0 0 30 30" fill="none" xmlns="http://www.w3.org/2000/svg">
    <g clip-path="url(#clip0_557_73845)">
        <path fill-rule="evenodd" clip-rule="evenodd"
              d="M7.17773 0L18 0.139423L27 9V26.0945C27 28.2534 25.1316 30 22.8302 30H7.17773C4.86835 30 3 28.2534 3 26.0945V3.90553C2.99996 1.74662 4.86831 0 7.17773 0Z"
              fill="#7F56D9"/>
        <path d="M6.93146 24.5V18.6818H9.22692C9.66821 18.6818 10.0442 18.7661 10.3548 18.9347C10.6654 19.1013 10.9021 19.3333 11.065 19.6307C11.2298 19.9261 11.3121 20.267 11.3121 20.6534C11.3121 21.0398 11.2288 21.3807 11.0621 21.6761C10.8955 21.9716 10.654 22.2017 10.3377 22.3665C10.0233 22.5312 9.64264 22.6136 9.19567 22.6136H7.7326V21.6278H8.9968C9.23355 21.6278 9.42862 21.5871 9.58203 21.5057C9.73733 21.4223 9.85286 21.3078 9.92862 21.1619C10.0063 21.0142 10.0451 20.8447 10.0451 20.6534C10.0451 20.4602 10.0063 20.2917 9.92862 20.1477C9.85286 20.0019 9.73733 19.8892 9.58203 19.8097C9.42673 19.7282 9.22976 19.6875 8.99112 19.6875H8.16158V24.5H6.93146ZM16.9776 18.6818V24.5H15.9151L13.3839 20.8381H13.3413V24.5H12.1112V18.6818H13.1907L15.7021 22.3409H15.7532V18.6818H16.9776ZM21.8519 20.5625C21.8121 20.4242 21.7563 20.3021 21.6843 20.196C21.6123 20.0881 21.5243 19.9972 21.4201 19.9233C21.3178 19.8475 21.2004 19.7898 21.0678 19.75C20.9371 19.7102 20.7923 19.6903 20.6332 19.6903C20.3358 19.6903 20.0745 19.7642 19.8491 19.9119C19.6256 20.0597 19.4513 20.2746 19.3263 20.5568C19.2013 20.8371 19.1388 21.1799 19.1388 21.5852C19.1388 21.9905 19.2004 22.3352 19.3235 22.6193C19.4466 22.9034 19.6209 23.1203 19.8462 23.2699C20.0716 23.4176 20.3377 23.4915 20.6445 23.4915C20.9229 23.4915 21.1606 23.4422 21.3576 23.3438C21.5565 23.2434 21.708 23.1023 21.8121 22.9205C21.9182 22.7386 21.9712 22.5237 21.9712 22.2756L22.2212 22.3125H20.7212V21.3864H23.1559V22.1193C23.1559 22.6307 23.0479 23.0701 22.832 23.4375C22.6161 23.803 22.3188 24.0852 21.94 24.2841C21.5612 24.4811 21.1275 24.5795 20.6388 24.5795C20.0934 24.5795 19.6142 24.4593 19.2013 24.2188C18.7885 23.9763 18.4665 23.6326 18.2354 23.1875C18.0063 22.7405 17.8917 22.2102 17.8917 21.5966C17.8917 21.125 17.9599 20.7045 18.0962 20.3352C18.2345 19.964 18.4277 19.6496 18.6758 19.392C18.9239 19.1345 19.2127 18.9384 19.5423 18.804C19.8718 18.6695 20.2288 18.6023 20.6133 18.6023C20.9428 18.6023 21.2496 18.6506 21.5337 18.7472C21.8178 18.8419 22.0697 18.9763 22.2894 19.1506C22.511 19.3248 22.6919 19.5322 22.832 19.7727C22.9722 20.0114 23.0621 20.2746 23.1019 20.5625H21.8519Z"
              fill="white"/>
        <path d="M18.0192 6.12V0L27 9H21.0128C18.3186 9 17.8945 7.08 18.0192 6.12Z" fill="white" fill-opacity="0.3"/>
    </g>
    <defs>
        <clipPath id="clip0_557_73845">
            <rect width="30" height="30" fill="white"/>
        </clipPath>
    </defs>
</svg>
