<svg width="14" height="14" viewBox="0 0 14 14" fill="none" xmlns="http://www.w3.org/2000/svg">
<path d="M1.75 3.50002H2.91667M2.91667 3.50002H12.25M2.91667 3.50002L2.91667 11.6667C2.91667 11.9761 3.03958 12.2729 3.25838 12.4916C3.47717 12.7104 3.77391 12.8334 4.08333 12.8334H9.91667C10.2261 12.8334 10.5228 12.7104 10.7416 12.4916C10.9604 12.2729 11.0833 11.9761 11.0833 11.6667V3.50002M4.66667 3.50002V2.33335C4.66667 2.02393 4.78958 1.72719 5.00838 1.5084C5.22717 1.2896 5.52391 1.16669 5.83333 1.16669H8.16667C8.47609 1.16669 8.77283 1.2896 8.99162 1.5084C9.21042 1.72719 9.33333 2.02393 9.33333 2.33335V3.50002M5.83333 6.41669V9.91669M8.16667 6.41669V9.91669" stroke="#C00F0C" stroke-width="1.2" stroke-linecap="round" stroke-linejoin="round"/>
</svg>
