<svg width="80" height="28" viewBox="0 0 80 28" fill="none" xmlns="http://www.w3.org/2000/svg">
<path d="M20.227 13.197C20.067 8.36978 16.1815 4.08681 11.2561 4.00332C6.15847 3.84251 2.02067 8.19351 1.84839 13.197C1.50383 13.197 1.16542 13.197 0.836242 13.2001C0.910076 10.7231 1.80532 8.27392 3.39276 6.369C9.27182 -0.601257 19.8024 2.51897 21.8452 11.1993C20.9038 5.65466 15.6677 1.4088 10.0163 2.06748C4.06957 2.67359 -0.175904 8.13476 0.00560522 14.0289C0.59628 14.032 1.21464 14.035 1.85146 14.0381C2.03297 19.0571 6.14309 23.3772 11.2561 23.2318C16.1815 23.1514 20.067 18.8685 20.227 14.0412C20.7223 14.0412 21.2022 14.0412 21.6729 14.0381C21.636 15.2133 21.4206 16.3853 21.0269 17.4954C19.7348 21.2496 16.283 24.1843 12.3236 24.6172C9.67791 24.945 6.96449 24.141 4.8356 22.536C3.76193 21.732 2.83285 20.7332 2.09143 19.6075C1.35308 18.4788 0.799325 17.2171 0.491681 15.8874C0.974681 18.5747 2.4729 21.0826 4.62641 22.8051C7.90896 25.5017 12.619 26.0212 16.3691 23.9926C20.1409 22.0413 22.5159 17.8603 22.5036 13.6207L22.5066 13.2063C21.7806 13.2063 21.0176 13.2032 20.2239 13.2001L20.227 13.197ZM14.6986 5.08566C17.9197 6.39683 20.0947 9.73353 20.2239 13.197C19.5932 13.197 18.9441 13.197 18.2827 13.1939C18.2765 9.49541 15.3785 6.17727 11.6284 5.94225C9.71175 5.79382 7.76744 6.50198 6.34613 7.79769C4.78638 9.18308 3.93113 11.1653 3.82346 13.1908C3.45121 13.1908 3.08204 13.1908 2.72209 13.1939C2.95898 7.15756 8.90572 2.7107 14.6986 5.08566ZM11.2561 13.1785C11.05 13.1785 10.8408 13.1785 10.6347 13.1846C8.60731 13.1846 6.59532 13.1846 4.70332 13.1908C4.86021 10.5994 6.34921 8.10074 9.06877 7.04933C13.4558 5.40417 17.8028 8.70994 18.2427 13.1939C16.2369 13.1908 14.1049 13.1877 11.9668 13.1846C11.7299 13.1846 11.493 13.1815 11.2561 13.1785ZM14.6986 22.1526C8.90572 24.5275 2.9559 20.0776 2.72209 14.0412C3.08511 14.0412 3.45121 14.0412 3.82346 14.0443C3.90037 15.5658 4.39875 17.0687 5.34321 18.3149C7.73976 21.5712 12.2775 22.2825 15.4616 19.756C16.9167 18.6149 17.9443 16.9203 18.2242 15.0865C17.0583 19.6106 11.9175 22.2175 7.85666 19.5983C5.8416 18.2995 4.80792 16.1935 4.69716 14.0474C6.60147 14.0505 8.61038 14.0536 10.6316 14.0536C10.8377 14.0536 11.0438 14.0567 11.253 14.0598C11.4868 14.0598 11.7176 14.0598 11.9483 14.0536C14.8248 14.0536 17.6766 14.0474 20.2208 14.0412C20.0916 17.5078 17.9166 20.8414 14.6956 22.1557L14.6986 22.1526Z" fill="#231F20"/>
<path d="M28.8285 7.9552H34.1169V9.74879H30.8774V13.1442H33.437V14.9378H30.8774V18.3333H34.1169V20.1269H28.8285V7.9552Z" fill="#231F20"/>
<path d="M37.7809 17.7213V10.3553C37.7809 8.7534 38.8884 7.71436 40.5958 7.71436C42.3032 7.71436 43.4107 8.77195 43.4107 10.3553V17.7213C43.4107 19.3232 42.3032 20.3623 40.5958 20.3623C38.8884 20.3623 37.7809 19.3047 37.7809 17.7213ZM41.3649 17.8481V10.2285C41.3649 9.79554 41.0573 9.50794 40.5989 9.50794C40.1405 9.50794 39.8298 9.79554 39.8298 10.2285V17.8481C39.8298 18.2811 40.1374 18.5687 40.5989 18.5687C41.0603 18.5687 41.3649 18.2811 41.3649 17.8481Z" fill="#231F20"/>
<path d="M47.4196 17.7213V16.2803H49.4655V17.8481C49.4655 18.2811 49.7731 18.5687 50.2346 18.5687C50.696 18.5687 51.0006 18.2811 51.0006 17.8481V16.9204C51.0006 14.9196 47.4196 14.2795 47.4196 11.317V10.3553C47.4196 8.7534 48.5272 7.71436 50.2346 7.71436C51.942 7.71436 53.0495 8.77195 53.0495 10.3553V11.7963H51.0037V10.2285C51.0037 9.79554 50.696 9.50794 50.2377 9.50794C49.7793 9.50794 49.4686 9.79554 49.4686 10.2285V11.1562C49.4686 13.1415 53.0495 13.7971 53.0495 16.7596V17.7213C53.0495 19.3232 51.942 20.3623 50.2346 20.3623C48.5272 20.3623 47.4196 19.3047 47.4196 17.7213Z" fill="#231F20"/>
<path d="M61.8541 7.9552H64.7367L66.5457 20.1238H64.4998L64.143 17.387H62.4386L62.0972 20.1238H60.0329L61.8572 7.9552H61.8541ZM63.9184 15.5903L63.2877 10.8528L62.6724 15.5903H63.9184Z" fill="#231F20"/>
<path d="M69.9542 7.9552H72V20.1238H69.9542V7.9552Z" fill="#231F20"/>
</svg>
